HIERARCHY
ROOT Hips
{
	OFFSET -0.001795 -0.223333 0.028219
	CHANNELS 6 Xposition Yposition Zposition Zrotation Yrotation Xrotation 
	JOINT LeftUpLeg
	{
		OFFSET 0.069520 -0.091406 -0.006815
		CHANNELS 3 Zrotation Yrotation Xrotation
		JOINT LeftLeg
		{
			OFFSET 0.034277 -0.375199 -0.004496
			CHANNELS 3 Zrotation Yrotation Xrotation
			JOINT LeftFoot
			{
				OFFSET -0.013596 -0.397961 -0.043693
				CHANNELS 3 Zrotation Yrotation Xrotation
				JOINT LeftToe
				{
					OFFSET 0.026358 -0.055791 0.119288
					CHANNELS 3 Zrotation Yrotation Xrotation
					End Site
					{
						OFFSET 0.000000 0.000000 0.000000
					}
				}
			}
		}
	}
	JOINT RightUpLeg
	{
		OFFSET -0.067670 -0.090522 -0.004320
		CHANNELS 3 Zrotation Yrotation Xrotation
		JOINT RightLeg
		{
			OFFSET -0.038290 -0.382569 -0.008850
			CHANNELS 3 Zrotation Yrotation Xrotation
			JOINT RightFoot
			{
				OFFSET 0.015774 -0.398415 -0.042312
				CHANNELS 3 Zrotation Yrotation Xrotation
				JOINT RightToe
				{
					OFFSET -0.025372 -0.048144 0.123348
					CHANNELS 3 Zrotation Yrotation Xrotation
					End Site
					{
						OFFSET 0.000000 0.000000 0.000000
					}
				}
			}
		}
	}
	JOINT Spine
	{
		OFFSET -0.002533 0.108963 -0.026696
		CHANNELS 3 Zrotation Yrotation Xrotation
		JOINT Spine1
		{
			OFFSET 0.005487 0.135180 0.001092
			CHANNELS 3 Zrotation Yrotation Xrotation
			JOINT Spine2
			{
				OFFSET 0.001457 0.052922 0.025425
				CHANNELS 3 Zrotation Yrotation Xrotation
				JOINT Neck
				{
					OFFSET -0.002778 0.213870 -0.042857
					CHANNELS 3 Zrotation Yrotation Xrotation
					JOINT Head
					{
						OFFSET 0.005152 0.064970 0.051349
						CHANNELS 3 Zrotation Yrotation Xrotation
						End Site
						{
							OFFSET 0.000000 0.000000 0.000000
						}
					}
				}
				JOINT LeftShoulder
				{
					OFFSET 0.078845 0.121749 -0.034090
					CHANNELS 3 Zrotation Yrotation Xrotation
					JOINT LeftArm
					{
						OFFSET 0.090977 0.030469 -0.008868
						CHANNELS 3 Zrotation Yrotation Xrotation
						JOINT LeftForeArm
						{
							OFFSET 0.259612 -0.012772 -0.027456
							CHANNELS 3 Zrotation Yrotation Xrotation
							JOINT LeftHand
							{
								OFFSET 0.249234 0.008986 -0.001171
								CHANNELS 3 Zrotation Yrotation Xrotation
								End Site
								{
									OFFSET 0.000000 0.000000 0.000000
								}
							}
						}
					}
				}
				JOINT RightShoulder
				{
					OFFSET -0.081759 0.118833 -0.038615
					CHANNELS 3 Zrotation Yrotation Xrotation
					JOINT RightArm
					{
						OFFSET -0.096012 0.032551 -0.009143
						CHANNELS 3 Zrotation Yrotation Xrotation
						JOINT RightForeArm
						{
							OFFSET -0.253742 -0.013329 -0.021401
							CHANNELS 3 Zrotation Yrotation Xrotation
							JOINT RightHand
							{
								OFFSET -0.255298 0.007772 -0.005559
								CHANNELS 3 Zrotation Yrotation Xrotation
								End Site
								{
									OFFSET 0.000000 0.000000 0.000000
								}
							}
						}
					}
				}
			}
		}
	}
}
MOTION
Frames: 8
Frame Time: 0.050000
0.000000 0.935223 0.000000 1.648270 -8.098868 10.485288 3.693173 -0.749120 -12.497970 -0.827031 0.223030 -4.536166 -4.568919 -5.956744 7.785864 0.000000 0.000000 0.000000 -4.573673 1.230770 -14.210132 1.335748 -0.032305 2.455975 -0.461511 -2.314749 1.868488 0.000000 0.000000 0.000000 5.577573 -1.093521 10.328215 -1.812233 0.854502 -0.648165 2.957822 5.375051 6.763238 9.144803 -3.640455 -20.244697 0.000000 0.000000 0.000000 -23.127080 -14.114050 6.072342 -48.027777 -9.775039 -1.949552 -64.663109 -70.887219 52.408288 0.000000 0.000000 0.000000 10.474343 23.473433 10.147485 13.755482 26.030895 0.258817 -14.789301 55.636372 -5.447457 0.000000 0.000000 0.000000 
-0.000620 0.935275 0.002444 1.594575 -8.075911 11.834260 4.264600 -0.713561 -12.470948 -1.569717 0.344781 -6.850681 -7.309830 -8.892000 11.813192 0.000000 0.000000 0.000000 -4.463696 1.330352 -15.237713 1.025477 -0.020408 1.871668 -0.270851 -2.440544 2.895605 0.000000 0.000000 0.000000 6.360630 -1.105900 8.852031 -1.408475 0.677945 -0.182108 2.788188 4.781792 6.184472 11.118110 -5.015287 -18.946809 0.000000 0.000000 0.000000 -27.359327 -12.419397 5.405115 -42.974830 -7.676300 -2.515566 -77.630573 -70.795049 63.777370 0.000000 0.000000 0.000000 9.472349 23.099396 9.719937 11.966220 25.688240 0.001906 -8.805714 55.224270 -2.417236 0.000000 0.000000 0.000000 
-0.000967 0.935523 0.004198 1.846547 -7.188832 11.561784 4.143514 -0.729582 -12.265147 -0.971417 0.258510 -5.383984 -6.890079 -9.117968 9.771736 0.000000 0.000000 0.000000 -4.445483 1.289822 -14.976866 1.210730 -0.038705 1.983471 -1.667658 -4.813317 1.045113 0.000000 0.000000 0.000000 6.625925 -1.095420 8.330901 -1.596192 0.757972 -0.375341 3.004354 4.153422 6.033915 10.897419 -5.409491 -16.323803 0.000000 0.000000 0.000000 -27.122969 -12.262883 5.384607 -42.713143 -6.798068 -2.821796 -74.982405 -69.938896 60.656689 0.000000 0.000000 0.000000 10.975073 23.429116 10.052943 9.486019 24.491178 -0.364121 -5.313990 54.719473 -0.703025 0.000000 0.000000 0.000000 
-0.001338 0.934983 0.005474 2.141325 -6.351033 12.700892 4.387158 -0.782553 -13.412266 -1.030287 0.258365 -5.315528 -8.413229 -11.635657 10.018473 0.000000 0.000000 0.000000 -5.359948 1.347744 -16.696265 2.172949 -0.120542 2.807211 -2.399930 -6.042033 -0.260653 0.000000 0.000000 0.000000 7.155763 -1.117681 7.518012 -2.046096 0.952830 -0.752487 3.074832 3.441506 6.387246 12.056397 -5.954807 -17.244099 0.000000 0.000000 0.000000 -26.889720 -11.983057 5.358200 -42.985831 -5.659285 -3.263996 -79.714815 -70.287319 65.385362 0.000000 0.000000 0.000000 11.554061 22.759477 9.765996 7.349406 22.839690 -0.661483 -5.983660 57.230542 -1.147211 0.000000 0.000000 0.000000 
-0.001758 0.934193 0.006296 2.473324 -5.946725 12.492671 4.005288 -0.824803 -13.433052 -1.052689 0.241144 -4.690144 -8.313562 -12.124785 8.828606 0.000000 0.000000 0.000000 -5.554216 1.292116 -16.286998 1.887386 -0.093725 2.731813 -2.141140 -5.363364 -0.303863 0.000000 0.000000 0.000000 7.534378 -1.220382 8.142360 -2.312760 1.064150 -1.225504 2.945987 3.128275 6.704294 11.502118 -5.749775 -16.738667 0.000000 0.000000 0.000000 -26.172263 -12.206152 5.521271 -43.271006 -5.531998 -3.358384 -75.791443 -71.243307 62.793640 0.000000 0.000000 0.000000 12.083415 22.077009 9.487036 5.959812 22.102314 -0.819903 -6.666940 59.270916 -1.613034 0.000000 0.000000 0.000000 
-0.002286 0.934128 0.006650 2.805455 -5.607259 13.025382 3.549206 -0.909165 -14.108731 -0.807962 0.226258 -4.828863 -9.144359 -13.302593 9.342528 0.000000 0.000000 0.000000 -6.183890 1.276761 -16.819806 2.135237 -0.118688 2.918639 -2.340513 -5.857428 -0.369524 0.000000 0.000000 0.000000 7.782635 -1.302197 8.461497 -2.134321 0.983764 -1.164087 2.603891 3.501506 6.265610 11.053479 -5.306936 -17.194567 0.000000 0.000000 0.000000 -26.511476 -12.800231 5.671553 -42.953210 -5.405660 -3.265373 -73.419585 -71.185048 60.372591 0.000000 0.000000 0.000000 11.679066 22.147116 9.614377 4.599983 20.897061 -0.942811 -9.246550 60.503997 -3.026284 0.000000 0.000000 0.000000 
-0.002909 0.934476 0.006741 3.020060 -5.723403 13.249743 3.274601 -0.956361 -14.582846 -0.655074 0.203935 -4.472059 -9.207772 -13.322438 9.512725 0.000000 0.000000 0.000000 -6.424499 1.305383 -17.530702 2.172465 -0.106710 3.537424 -2.430547 -6.151618 -0.248979 0.000000 0.000000 0.000000 8.143095 -1.355185 8.508491 -2.226544 1.019790 -1.484055 2.438092 3.571879 6.495053 11.285541 -5.397969 -17.465725 0.000000 0.000000 0.000000 -26.809074 -12.599488 5.556566 -42.726558 -5.182839 -3.337916 -70.134418 -70.637745 56.992916 0.000000 0.000000 0.000000 11.122834 21.622878 9.287160 3.821108 21.590258 -1.044150 -10.020791 60.458209 -3.464679 0.000000 0.000000 0.000000 
-0.003593 0.934851 0.006791 3.211613 -5.958176 13.578817 3.029835 -0.997472 -14.971751 -0.499636 0.189268 -4.379666 -9.334914 -13.426413 9.749198 0.000000 0.000000 0.000000 -6.793176 1.326718 -18.229861 2.581739 -0.142487 4.027098 -2.567021 -6.562400 -0.131966 0.000000 0.000000 0.000000 8.377669 -1.361693 8.225278 -2.381879 1.090991 -1.296975 2.198471 3.972495 6.321094 11.067042 -5.465833 -16.241703 0.000000 0.000000 0.000000 -26.933098 -13.005176 5.693635 -42.262706 -4.670304 -3.417571 -69.403312 -70.419903 56.036081 0.000000 0.000000 0.000000 10.469843 21.508090 9.210468 3.260172 21.572926 -1.100957 -10.845987 60.978406 -3.924331 0.000000 0.000000 0.000000 
